<svg width="30" height="30" viewBox="0 0 30 30" fill="none" xmlns="http://www.w3.org/2000/svg">
<path fill-rule="evenodd" clip-rule="evenodd" d="M2.72686 3.7239C4.48686 1.8699 5.10886 1.3499 5.85886 1.1079C6.3779 0.971903 6.92224 0.964343 7.44486 1.0859C8.13286 1.2859 8.31486 1.4379 10.5708 3.6859C12.5528 5.6599 12.7508 5.8739 12.9408 6.2599C13.3042 6.93746 13.361 7.73788 13.0968 8.4599C12.8968 9.0099 12.6128 9.3739 11.4108 10.5799L10.6268 11.366C10.421 11.5752 10.3726 11.8928 10.5068 12.154C12.2488 15.1256 14.72 17.6038 17.6868 19.354C18.0284 19.5368 18.449 19.4778 18.7268 19.208L19.4808 18.466C19.9468 17.9882 20.4404 17.5382 20.9588 17.118C21.7732 16.618 22.7878 16.5734 23.6428 17C24.0608 17.2 24.1988 17.324 26.2428 19.364C28.3508 21.466 28.4108 21.532 28.6428 22.014C29.0794 22.8118 29.0748 23.7782 28.6308 24.572C28.4048 25.02 28.2668 25.182 27.0808 26.394C26.3648 27.126 25.6908 27.794 25.5828 27.892C24.6044 28.702 23.3492 29.0994 22.0828 29C19.766 28.7888 17.5234 28.0726 15.5128 26.902C11.0592 24.5422 7.26766 21.1042 4.48486 16.902C3.87874 16.0224 3.33988 15.0984 2.87286 14.138C1.62002 11.9906 0.97306 9.54378 1.00086 7.0579C1.0965 5.75742 1.72016 4.55274 2.72686 3.7239Z" fill="#476171" stroke="#476171" stroke-width="1.5" stroke-linecap="round" stroke-linejoin="round"/>
</svg>
