<svg width="50" height="50" viewBox="0 0 50 50" fill="none" xmlns="http://www.w3.org/2000/svg">
<path d="M20.7656 30.5L18.4219 31.5078C17.6328 31.8438 16.7422 31.8438 15.9609 31.5078L13.6172 30.5C12.4688 30.0078 11.7266 28.875 11.7266 27.625V23.4375C11.7266 20.8516 13.8281 18.75 16.4141 18.75H17.9766C20.5625 18.75 22.6641 20.8516 22.6641 23.4375V27.625C22.6641 28.875 21.9219 30.0078 20.7734 30.5H20.7656Z" fill="#DDA15E"/>
<path d="M27.4531 35.1562C26.0312 33.7109 24.0547 32.8125 21.875 32.8125H19.5312C19.5312 34.1094 18.4844 35.1562 17.1875 35.1562C15.8906 35.1562 14.8438 34.1094 14.8438 32.8125H12.5C8.1875 32.8125 4.6875 36.3125 4.6875 40.625V46.0938H21.875L25 35.1562H27.4531Z" fill="#274C77"/>
<path d="M13.2812 42.9688H14.8438C15.7031 42.9688 16.4062 43.6719 16.4062 44.5312V46.0938H13.2812V42.9688Z" fill="#DDA15E"/>
<path d="M9.375 24.7891C9.14844 24.9219 8.875 25 8.59375 25C7.73437 25 7.03125 24.2969 7.03125 23.4375C7.03125 22.5781 7.73437 21.875 8.59375 21.875C8.92187 21.875 9.22656 21.9766 9.48438 22.1563" fill="#274C77"/>
<path d="M25 24.7891C25.2266 24.9219 25.5 25 25.7812 25C26.6406 25 27.3437 24.2969 27.3437 23.4375C27.3437 22.5781 26.6406 21.875 25.7812 21.875C25.4531 21.875 25.1484 21.9766 24.8906 22.1563" fill="#274C77"/>
<path d="M14.8438 31.0234L15.9531 31.5C16.7422 31.8438 17.6328 31.8438 18.4219 31.5L19.5312 31.0234V32.8125C19.5312 34.1094 18.4844 35.1563 17.1875 35.1563C15.8906 35.1563 14.8438 34.1094 14.8438 32.8125V31.0234Z" fill="#BC6C25"/>
<path d="M21.875 46.0938L25 35.1562H42.1875L39.0625 46.0938" fill="#8B8C89"/>
<path d="M22.1797 21.3906C21.7344 21.2109 21.2187 21.0938 20.5703 21.0938C17.1875 21.0938 17.1875 24.2188 13.7969 24.2188C12.9141 24.2188 12.2578 24.0078 11.7188 23.6953V23.4375C11.7188 20.8516 13.8203 18.75 16.4062 18.75H17.9688C19.8203 18.75 21.4219 19.8281 22.1797 21.3906Z" fill="#274C77"/>
<path d="M22.6562 27.0312V23.4375C22.6562 20.8516 20.5547 18.75 17.9688 18.75H16.4062C13.8203 18.75 11.7188 20.8516 11.7188 23.4375V26.5625H10.1562C9.72656 26.5625 9.375 26.2109 9.375 25.7812V23.4375C9.375 19.125 12.875 15.625 17.1875 15.625C19.3437 15.625 21.2969 16.5 22.7109 17.9141C24.125 19.3281 25 21.2813 25 23.4375V25.9219C25 26.2969 24.7344 26.6172 24.375 26.6875L22.6562 27.0312Z" fill="#E7ECEF"/>
<path d="M32.0312 39.8438C32.4609 39.8438 32.8125 40.1953 32.8125 40.625C32.8125 41.0547 32.4609 41.4062 32.0312 41.4062V39.8438Z" fill="#A3CEF1"/>
<path d="M17.1875 28.1249C17.1016 27.7031 17.375 27.289 17.7969 27.2031L24.2188 25.9218V23.6874C24.2188 19.9452 21.3984 16.6718 17.6719 16.4218C13.5781 16.1484 10.1562 19.3984 10.1562 23.4374V25.7812H11.7188V27.3437H10.1562C9.29687 27.3437 8.59375 26.6406 8.59375 25.7812V23.6874C8.59375 19.2187 11.9063 15.2968 16.3594 14.8827C21.4688 14.3984 25.7812 18.4218 25.7812 23.4374V25.9218C25.7812 26.664 25.2578 27.3046 24.5234 27.4531L18.1016 28.7343C17.6797 28.8202 17.2656 28.5468 17.1797 28.1249H17.1875Z" fill="#6096BA"/>
<path d="M17.1875 46.0938H15.625V44.5313C15.625 44.1016 15.2734 43.75 14.8438 43.75H9.375C8.94531 43.75 8.59375 43.3984 8.59375 42.9688V39.8438C8.59375 39.6328 8.67969 39.4375 8.82031 39.2891L9.82812 38.2813C10.1328 37.9766 10.625 37.9766 10.9297 38.2813C11.2344 38.5859 11.2344 39.0781 10.9297 39.3828L10.1484 40.1641V42.1875H14.8359C16.1328 42.1875 17.1797 43.2344 17.1797 44.5313V46.0938H17.1875Z" fill="#6096BA"/>
<path d="M42.1875 46.0938H3.125V47.6562H42.1875V46.0938Z" fill="#A3CEF1"/>
<path d="M28.9062 8.16405L31.3047 7.36717C31.8672 7.17967 32.4844 7.32811 32.9062 7.74217L41.4844 16.3203C41.9062 16.7422 42.0469 17.3594 41.8594 17.9219L41.0625 20.3203L44.375 23.6328L46.4375 20.2031C47.1719 18.9765 46.9844 17.3984 45.9688 16.3828L32.8359 3.2578C31.8203 2.24217 30.25 2.04686 29.0156 2.78905L25.5859 4.85155L28.8984 8.16405H28.9062Z" fill="#274C77"/>
<path d="M26.1406 10.9219C25.6953 10.4766 25.4531 9.89062 25.4531 9.26562C25.4531 8.64062 25.6953 8.05469 26.1406 7.60938L27.2422 8.71875C27.0937 8.86719 27.0156 9.0625 27.0156 9.27344C27.0156 9.48438 27.0937 9.67969 27.2422 9.82813L26.1406 10.9375V10.9219Z" fill="#A3CEF1"/>
<path d="M24.4844 12.5859C22.6562 10.7578 22.6562 7.78125 24.4844 5.95312L25.5859 7.05469C24.3672 8.27344 24.3672 10.2578 25.5859 11.4766L24.4844 12.5781V12.5859Z" fill="#A3CEF1"/>
<path d="M22.8281 14.2422C20.0859 11.5 20.0859 7.03906 22.8281 4.29688L23.9297 5.39844C21.7969 7.53125 21.7969 11 23.9297 13.1328L22.8281 14.2344V14.2422Z" fill="#A3CEF1"/>
<path d="M39.9531 23.7656C39.3516 23.7656 38.75 23.5391 38.2969 23.0781L39.3984 21.9688C39.7031 22.2734 40.1953 22.2734 40.5078 21.9688L41.6094 23.0781C41.1562 23.5313 40.5547 23.7656 39.9531 23.7656Z" fill="#A3CEF1"/>
<path d="M39.9531 26.1094C38.75 26.1094 37.5547 25.6562 36.6406 24.7422L37.7422 23.6406C38.9609 24.8594 40.9453 24.8594 42.1641 23.6406L43.2656 24.7422C42.3516 25.6562 41.1484 26.1094 39.9531 26.1094Z" fill="#A3CEF1"/>
<path d="M39.9531 28.4531C38.1563 28.4531 36.3516 27.7656 34.9844 26.3984L36.0859 25.2969C38.2187 27.4297 41.6875 27.4297 43.8203 25.2969L44.9219 26.3984C43.5547 27.7656 41.75 28.4531 39.9531 28.4531Z" fill="#A3CEF1"/>
</svg>
