<svg width="50" height="48" viewBox="0 0 50 48" fill="none" xmlns="http://www.w3.org/2000/svg">
<path d="M49.1608 21.7609L41.583 14.1831V5.42954C41.583 3.84677 40.3004 2.56407 38.7153 2.56407C37.1339 2.56407 35.8513 3.84677 35.8513 5.42954V8.45145L30.209 2.80902C27.4195 0.0209599 22.5693 0.0259054 19.7861 2.81407L0.838917 21.7609C-0.279578 22.8816 -0.279578 24.695 0.838917 25.814C1.95792 26.9344 3.77484 26.9344 4.89343 25.814L23.8388 6.86667C24.456 6.25272 25.5438 6.25272 26.1578 6.86485L45.1064 25.814C45.6682 26.3742 46.4008 26.6529 47.1331 26.6529C47.867 26.6529 48.6007 26.3739 49.1609 25.814C50.2798 24.6951 50.2798 22.8817 49.1608 21.7609Z" fill="#476171" stroke="#476171"/>
<path d="M25.9954 12.3061C25.4449 11.7559 24.5536 11.7559 24.0047 12.3061L7.33875 28.9671C7.07563 29.2301 6.92645 29.5892 6.92645 29.964V42.1159C6.92645 44.9675 9.23853 47.2795 12.09 47.2795H20.3413V34.5008H29.657V47.2795H37.9084C40.7598 47.2795 43.0718 44.9675 43.0718 42.116V29.964C43.0718 29.5892 42.924 29.2301 42.6595 28.9671L25.9954 12.3061Z" fill="#476171" stroke="#476171"/>
</svg>
